<?xml version="1.0" encoding="UTF-8"?>
<svg width="41px" height="193px" viewBox="0 0 41 193" version="1.1" xmlns="http://www.w3.org/2000/svg" xmlns:xlink="http://www.w3.org/1999/xlink">
    <!-- Generator: Sketch 45 (43475) - http://www.bohemiancoding.com/sketch -->
    <title>Volume Lines</title>
    <desc>Created with Sketch.</desc>
    <defs></defs>
    <g id="Symbols" stroke="none" stroke-width="1" fill="none" fill-rule="evenodd">
        <g id="Faders/fader_even" transform="translate(-12.000000, -98.000000)">
            <g id="Mechanical-Fader" transform="translate(12.000000, 98.000000)">
                <g id="Volume-Lines">
                    <path d="M15.9892231,13.4736842 L0.695105419,13.4736842 L0.695105419,14.4736842 L15.9892231,14.4736842 L15.9892231,13.4736842 Z M25.4009878,13.4736842 L40.6951054,13.4736842 L40.6951054,14.4736842 L25.4009878,14.4736842 L25.4009878,13.4736842 Z" id="Line" fill="#898A85"></path>
                    <path d="M15.9892231,154.947368 L0.695105419,154.947368 L0.695105419,155.947368 L15.9892231,155.947368 L15.9892231,154.947368 Z M25.4009878,154.947368 L40.6951054,154.947368 L40.6951054,155.947368 L25.4009878,155.947368 L25.4009878,154.947368 Z" id="Line" fill="#898A85"></path>
                    <path d="M15.9892231,178.526316 L0.695105419,178.526316 L0.695105419,179.526316 L15.9892231,179.526316 L15.9892231,178.526316 Z M25.4009878,178.526316 L40.6951054,178.526316 L40.6951054,179.526316 L25.4009878,179.526316 L25.4009878,178.526316 Z" id="Line" fill="#898A85"></path>
                    <path d="M15.9892231,191 L0.695105419,191 L0.695105419,193 L15.9892231,193 L15.9892231,191 Z M25.4009878,191 L40.6951054,191 L40.6951054,193 L25.4009878,193 L25.4009878,191 Z" id="Bottom-Line" fill="#FFFFFF"></path>
                    <path d="M16.2941176,96 L1,96 L1,98 L16.2941176,98 L16.2941176,96 Z M25.7058824,96 L41,96 L41,98 L25.7058824,98 L25.7058824,96 Z" id="Center-Line" fill="#FFFFFF"></path>
                    <path d="M15.9892231,24.7176471 L0.695105419,24.7176471 L0.695105419,26.7176471 L15.9892231,26.7176471 L15.9892231,24.7176471 Z M25.4009878,24.7176471 L40.6951054,24.7176471 L40.6951054,26.7176471 L25.4009878,26.7176471 L25.4009878,24.7176471 Z" id="Zero-dB-Line" fill="#FFFFFF"></path>
                    <path d="M16.2941176,0 L1,0 L1,2 L16.2941176,2 L16.2941176,1.33226763e-15 Z M25.7058824,0 L41,0 L41,2 L25.7058824,2 L25.7058824,2.22044605e-16 Z" id="+12-db-Line" fill="#FFFFFF"></path>
                </g>
            </g>
        </g>
    </g>
</svg>